<?xml version="1.0" standalone="no"?>
<!DOCTYPE svg PUBLIC "-//W3C//DTD SVG 20010904//EN"
 "http://www.w3.org/TR/2001/REC-SVG-20010904/DTD/svg10.dtd">
<svg version="1.0" xmlns="http://www.w3.org/2000/svg"
 width="1280.000000pt" height="1280.000000pt" viewBox="0 0 1280.000000 1280.000000"
 preserveAspectRatio="xMidYMid meet">
<metadata>
Created by potrace 1.11, written by Peter Selinger 2001-2013
</metadata>
<g transform="translate(0.000000,1280.000000) scale(0.100000,-0.100000)"
fill="#000000" stroke="none">
<path d="M3899 10555 c-3 -2 -41 -6 -84 -9 -97 -6 -270 -24 -295 -31 -3 -1
-30 -5 -60 -9 -30 -5 -64 -10 -75 -13 -11 -2 -33 -7 -50 -9 -23 -4 -231 -53
-335 -79 -8 -2 -49 -15 -90 -28 -41 -13 -90 -28 -107 -32 -18 -3 -33 -10 -33
-14 0 -4 -8 -7 -17 -8 -34 -3 -298 -115 -448 -189 -166 -82 -222 -113 -338
-185 -43 -27 -82 -49 -86 -49 -5 0 -11 -3 -13 -8 -1 -4 -30 -25 -63 -47 -33
-21 -62 -41 -65 -44 -3 -3 -57 -45 -120 -93 -117 -89 -126 -96 -240 -196 -67
-59 -254 -245 -325 -323 -99 -109 -262 -315 -333 -421 -69 -103 -153 -238
-178 -283 -14 -27 -32 -57 -39 -65 -12 -15 -28 -52 -25 -59 1 -2 -2 -7 -7 -10
-7 -6 -72 -133 -106 -211 -9 -19 -29 -65 -46 -102 -16 -38 -27 -68 -23 -68 4
0 2 -4 -3 -8 -6 -4 -16 -23 -22 -42 -6 -19 -25 -70 -41 -112 -17 -43 -28 -78
-25 -78 3 0 0 -7 -7 -15 -7 -8 -10 -15 -6 -15 3 0 -1 -17 -9 -37 -17 -45 -84
-295 -90 -340 -3 -17 -10 -44 -15 -58 -7 -19 -7 -24 1 -19 8 4 8 1 1 -12 -16
-32 -55 -284 -69 -454 -9 -116 -10 -564 0 -676 9 -107 21 -206 31 -259 2 -11
7 -42 10 -68 7 -53 24 -140 42 -222 4 -16 8 -39 10 -50 1 -11 3 -20 4 -20 1 0
3 -7 5 -15 4 -18 37 -142 60 -225 9 -33 20 -64 23 -70 4 -5 7 -15 8 -22 3 -21
26 -88 34 -98 4 -5 10 -23 14 -40 4 -16 17 -50 28 -74 11 -25 21 -50 23 -56 3
-14 43 -106 55 -127 5 -10 10 -23 10 -29 0 -6 8 -23 18 -37 10 -15 25 -43 32
-62 8 -19 21 -46 29 -59 8 -13 16 -30 17 -37 1 -8 12 -25 23 -40 12 -15 21
-30 21 -35 0 -14 190 -322 209 -339 3 -3 12 -17 20 -33 8 -15 18 -27 23 -27 4
0 8 -6 8 -14 0 -8 3 -16 8 -18 4 -1 27 -30 52 -63 25 -33 47 -62 51 -65 3 -3
12 -14 20 -26 13 -20 71 -87 169 -197 94 -106 276 -282 390 -377 29 -25 58
-50 64 -55 6 -6 58 -46 116 -89 58 -42 112 -83 120 -89 44 -33 109 -77 115
-77 5 0 64 -39 75 -50 3 -3 16 -11 29 -18 13 -8 38 -22 56 -32 18 -10 43 -24
56 -32 13 -7 26 -15 29 -19 12 -13 347 -173 450 -214 127 -51 273 -104 306
-111 12 -2 38 -11 58 -19 20 -8 37 -15 38 -14 5 1 63 -13 103 -26 22 -7 54
-15 70 -18 17 -3 62 -13 100 -22 90 -21 343 -63 409 -69 28 -3 51 -5 51 -6 0
-1 31 -4 200 -15 133 -9 395 -11 395 -3 0 5 21 4 40 -2 8 -3 284 -3 295 0 6 1
12 1 15 0 15 -6 143 -4 147 3 2 4 9 4 16 0 17 -10 266 -10 259 1 -3 5 1 6 8 1
15 -9 180 -13 180 -3 0 5 21 4 40 -2 8 -3 284 -3 295 0 6 1 12 1 15 0 15 -6
143 -4 147 3 2 4 9 4 16 0 17 -10 266 -10 259 1 -3 5 1 6 8 1 15 -9 180 -13
180 -3 0 5 21 4 40 -2 8 -3 284 -3 295 0 6 1 12 1 15 0 15 -6 143 -4 147 3 2
4 9 4 16 0 17 -10 266 -10 259 1 -3 5 1 6 8 1 15 -9 180 -13 180 -3 0 5 21 4
40 -2 8 -3 284 -3 295 0 6 1 12 1 15 0 15 -6 143 -4 147 3 2 4 9 4 16 0 17
-10 266 -10 259 1 -3 5 1 6 8 1 15 -9 180 -13 180 -3 0 5 21 4 40 -2 15 -5
289 -2 298 4 6 3 13 3 15 -1 10 -15 412 1 592 23 28 4 61 8 75 9 23 2 89 13
135 21 11 2 46 9 77 14 106 20 113 21 183 40 22 6 53 13 68 15 33 5 33 5 267
80 96 30 184 60 195 65 11 5 60 26 109 46 50 20 100 43 113 51 13 8 23 13 23
10 0 -19 414 211 570 317 303 205 616 481 830 732 14 16 49 57 78 91 28 33 52
66 52 72 0 6 4 11 8 11 4 0 25 25 47 56 22 31 45 61 50 67 25 29 139 203 207
317 89 150 199 370 261 525 39 96 40 99 43 110 1 6 21 62 44 125 23 63 43 124
44 135 2 11 6 27 9 35 7 18 31 101 33 115 0 6 3 17 7 25 6 17 23 91 31 135 8
40 13 69 27 135 7 30 13 66 14 80 2 14 4 25 5 25 1 0 3 16 4 35 2 19 6 56 10
83 24 185 28 237 29 497 1 214 -9 417 -26 530 -3 19 -9 58 -13 85 -3 28 -8 59
-10 70 -2 11 -7 40 -10 65 -3 25 -8 48 -10 51 -2 3 -6 21 -9 40 -6 41 -17 89
-54 237 -14 52 -91 303 -101 327 -5 11 -19 49 -31 85 -13 36 -27 67 -31 68 -4
2 -8 12 -8 21 0 10 -3 21 -7 25 -5 4 -8 11 -9 14 -3 30 -186 398 -223 451 -12
16 -21 32 -21 35 0 8 -116 192 -130 206 -5 5 -77 110 -95 139 -5 9 -16 20 -22
24 -7 4 -13 14 -13 22 0 7 -3 15 -8 17 -4 2 -37 39 -72 83 -140 173 -311 354
-453 479 -33 28 -73 64 -90 79 -18 16 -53 45 -79 65 -27 20 -48 40 -48 44 0 4
-6 8 -14 8 -8 0 -16 3 -18 8 -1 4 -28 25 -58 47 -30 22 -60 44 -67 50 -7 5
-19 16 -27 23 -8 6 -17 12 -20 12 -3 0 -44 26 -93 59 -48 32 -104 68 -123 79
-19 10 -75 43 -123 71 -49 28 -95 51 -102 51 -7 0 -15 4 -17 8 -4 10 -158 84
-278 134 -52 21 -104 43 -115 47 -38 17 -111 43 -200 73 -80 26 -105 34 -140
41 -5 2 -16 6 -22 10 -7 5 -13 6 -13 3 0 -3 -12 -1 -27 5 -16 6 -35 12 -43 14
-8 2 -35 8 -60 15 -25 7 -52 13 -60 15 -8 2 -49 10 -90 18 -90 19 -178 34
-244 42 -27 3 -52 8 -55 10 -3 1 -44 6 -90 10 -47 4 -94 10 -105 13 -24 7
-5050 14 -5057 7z m5018 -798 c34 -3 77 -8 95 -11 18 -3 51 -8 73 -11 22 -4
51 -8 65 -11 14 -2 40 -7 59 -9 19 -3 64 -12 100 -21 36 -9 77 -18 91 -20 43
-8 234 -64 252 -74 10 -6 23 -10 29 -10 17 0 216 -79 318 -126 51 -24 97 -44
101 -44 5 0 15 -6 22 -12 7 -7 36 -24 63 -38 89 -43 400 -241 425 -269 3 -4
23 -20 45 -36 188 -140 445 -399 600 -605 27 -36 55 -71 62 -78 7 -7 13 -17
13 -21 0 -4 11 -21 25 -37 14 -16 25 -34 25 -41 0 -6 4 -13 9 -15 27 -10 311
-541 311 -582 0 -2 5 -17 12 -33 6 -15 12 -32 14 -38 2 -5 15 -41 29 -80 15
-38 28 -77 30 -85 2 -8 10 -35 18 -60 15 -46 62 -231 72 -285 20 -108 27 -145
31 -180 2 -22 7 -53 10 -70 3 -16 7 -52 9 -80 2 -27 6 -84 10 -125 3 -41 6
-138 6 -215 0 -128 -3 -184 -17 -330 -7 -78 -22 -189 -30 -225 -3 -14 -7 -42
-9 -63 -3 -21 -7 -42 -9 -46 -3 -4 -8 -21 -10 -38 -22 -122 -104 -386 -172
-553 -44 -107 -154 -331 -171 -348 -7 -8 -11 -17 -8 -22 3 -5 2 -10 -2 -12
-11 -4 -83 -124 -83 -137 0 -6 -4 -11 -8 -11 -4 0 -16 -15 -27 -32 -10 -18
-22 -37 -27 -43 -4 -5 -48 -64 -97 -130 -121 -161 -125 -166 -286 -329 -155
-158 -224 -219 -365 -324 -52 -39 -99 -75 -105 -79 -12 -10 -123 -84 -147 -98
-104 -63 -295 -168 -308 -170 -3 0 -40 -17 -83 -38 -44 -20 -81 -37 -84 -37
-3 0 -19 -6 -36 -14 -64 -27 -90 -36 -205 -75 -99 -34 -276 -82 -347 -95 -11
-2 -38 -7 -60 -11 -22 -4 -44 -10 -49 -13 -5 -3 -27 -6 -50 -8 -22 -2 -52 -6
-66 -9 -14 -3 -52 -8 -85 -11 -33 -3 -76 -8 -95 -12 -58 -10 -4946 -13 -4973
-3 -13 5 -30 5 -37 1 -8 -5 -19 -6 -24 -2 -6 3 -24 7 -41 8 -46 3 -192 21
-239 30 -17 4 -41 8 -53 10 -38 7 -67 12 -93 18 -103 23 -133 30 -195 49 -38
11 -75 20 -82 19 -6 -2 -14 2 -18 8 -3 5 -15 10 -26 10 -10 0 -27 4 -37 10 -9
5 -37 16 -62 24 -65 21 -192 72 -277 112 -40 18 -78 34 -83 34 -6 0 -10 5 -10
10 0 6 -6 10 -12 10 -16 0 -39 12 -193 100 -130 74 -370 244 -462 327 -17 15
-53 47 -80 69 -138 119 -453 468 -453 503 0 6 -4 11 -8 11 -5 0 -28 30 -52 67
-25 38 -47 70 -50 73 -9 7 -68 106 -103 170 -16 30 -37 63 -45 73 -8 9 -12 17
-8 17 3 0 -4 17 -17 38 -29 47 -51 95 -49 105 1 4 -3 7 -8 7 -5 0 -9 3 -8 8 1
4 -8 27 -19 52 -64 136 -166 433 -198 575 -3 15 -16 78 -19 95 -2 8 -6 31 -10
50 -4 19 -9 46 -11 60 -2 14 -6 36 -9 50 -8 44 -27 199 -31 267 -1 28 -6 56
-9 62 -4 5 -2 12 4 16 6 4 7 13 2 23 -10 21 -9 273 1 289 4 6 3 14 -3 18 -6 4
-8 11 -5 16 4 5 8 37 10 71 7 104 22 233 32 283 4 17 8 39 9 50 1 11 4 34 8
50 3 17 8 40 10 51 2 12 9 38 14 58 6 20 8 36 5 36 -3 0 0 7 7 15 7 8 10 15 7
15 -3 0 1 21 9 47 8 25 12 49 9 51 -3 3 -1 10 4 16 4 6 18 45 31 86 12 41 42
125 66 187 24 61 44 116 44 122 0 6 4 11 8 11 5 0 9 6 9 13 1 14 80 178 128
262 19 33 39 72 46 88 6 15 15 27 20 27 5 0 9 6 9 13 0 6 14 30 30 51 17 22
30 45 30 52 0 7 4 14 8 16 6 2 81 104 142 192 8 11 21 28 30 36 8 8 33 37 55
65 60 75 278 305 289 305 2 0 21 17 43 38 111 106 459 362 491 362 6 0 12 4
14 8 8 21 310 173 468 236 52 21 104 42 115 46 52 21 239 79 277 85 15 3 39
10 53 15 14 5 40 12 58 15 18 4 52 11 77 16 25 6 56 12 70 14 59 8 106 16 120
20 14 4 63 10 163 19 21 2 41 7 44 10 8 7 4981 1 5060 -7z"/>
<path d="M8378 8955 c-2 -2 -34 -6 -73 -9 -68 -5 -119 -12 -160 -20 -11 -2
-40 -7 -65 -11 -51 -8 -52 -9 -140 -30 -36 -9 -72 -18 -80 -20 -8 -2 -27 -8
-41 -13 -15 -6 -30 -8 -33 -5 -3 4 -6 2 -6 -4 0 -5 -6 -10 -13 -10 -7 0 -57
-17 -112 -38 -256 -97 -507 -242 -714 -413 -17 -14 -123 -111 -186 -171 -22
-21 -62 -64 -90 -96 -27 -31 -57 -65 -65 -74 -18 -19 -54 -67 -122 -161 -39
-53 -82 -119 -91 -140 -4 -8 -21 -37 -37 -65 -61 -101 -192 -395 -204 -457 -2
-7 -11 -40 -21 -73 -25 -80 -23 -73 -35 -130 -27 -121 -29 -133 -36 -185 -3
-25 -8 -54 -10 -65 -18 -91 -23 -409 -9 -565 8 -95 13 -135 15 -135 2 0 7 -25
13 -75 4 -25 9 -54 11 -65 3 -11 13 -49 21 -85 19 -79 23 -94 25 -97 2 -2 4
-7 5 -13 1 -5 4 -12 5 -15 1 -3 3 -8 4 -12 1 -5 6 -24 10 -43 5 -19 12 -41 16
-50 5 -8 30 -69 56 -135 26 -66 54 -127 61 -137 8 -9 16 -22 17 -30 4 -23 148
-273 166 -288 3 -3 28 -36 55 -75 27 -38 58 -79 68 -90 10 -11 33 -37 50 -59
118 -144 342 -341 512 -452 33 -21 62 -41 65 -44 6 -6 43 -27 95 -54 22 -12
42 -24 45 -27 8 -8 243 -119 254 -119 2 0 17 -5 33 -12 15 -6 33 -12 39 -13 6
-2 27 -10 45 -18 82 -36 333 -96 489 -117 167 -23 393 -32 423 -18 10 5 17 5
17 -1 0 -6 6 -8 13 -6 6 2 46 6 87 9 41 3 109 10 150 16 41 7 89 13 105 15 17
3 39 7 50 9 11 3 46 12 78 19 57 14 65 16 70 18 1 0 10 2 19 4 94 18 513 186
538 215 3 4 12 9 21 13 42 15 272 167 354 234 165 134 297 269 438 448 4 5 30
42 57 80 27 39 54 75 60 82 5 7 10 14 10 17 0 2 17 33 39 67 47 78 158 306
177 364 2 6 19 55 38 110 19 55 37 111 40 125 3 14 10 43 16 65 19 70 29 119
36 165 2 19 6 42 9 50 5 17 13 77 21 165 8 79 8 417 0 480 -6 48 -24 168 -31
210 -3 16 -28 131 -39 180 -5 22 -37 131 -43 145 -3 8 -7 20 -8 25 -6 26 -76
197 -99 243 -14 28 -26 58 -26 67 0 8 -3 15 -8 15 -4 0 -14 15 -21 32 -8 18
-38 70 -65 116 -28 45 -55 91 -61 100 -15 26 -58 85 -72 100 -7 7 -13 16 -13
20 0 4 -14 23 -30 42 -17 19 -45 54 -63 77 -18 23 -88 97 -157 165 -125 123
-136 133 -220 198 -25 19 -47 37 -50 40 -3 4 -48 34 -100 68 -52 34 -100 66
-106 70 -48 33 -342 179 -379 187 -5 1 -23 7 -40 14 -34 14 -173 61 -195 66
-8 2 -51 12 -95 23 -75 19 -140 32 -175 37 -8 1 -40 5 -70 10 -30 4 -68 10
-85 12 -36 5 -443 12 -447 8z m369 -798 c113 -13 320 -60 366 -83 15 -8 27
-12 27 -10 0 7 179 -73 250 -111 65 -36 131 -77 160 -100 8 -7 43 -33 77 -58
101 -75 273 -253 328 -339 11 -17 25 -37 32 -44 8 -8 21 -28 30 -45 9 -18 19
-34 23 -37 19 -13 150 -292 150 -320 0 -10 5 -22 10 -25 6 -3 10 -17 10 -31 0
-13 4 -24 8 -24 5 0 9 -6 9 -12 0 -7 10 -57 22 -112 31 -141 36 -192 36 -366
0 -231 -12 -307 -91 -572 -9 -32 -21 -58 -26 -58 -5 0 -7 -4 -4 -8 11 -18
-169 -349 -196 -360 -5 -2 -8 -8 -8 -13 0 -10 -22 -39 -57 -76 -13 -13 -23
-27 -23 -30 0 -9 -188 -192 -240 -234 -154 -123 -442 -274 -582 -305 -5 -1
-10 -3 -13 -4 -3 -1 -9 -4 -15 -5 -5 -1 -12 -3 -15 -4 -3 0 -7 -1 -10 -2 -2 0
-28 -7 -57 -15 -29 -8 -75 -17 -103 -20 -70 -9 -69 -9 -80 -15 -13 -8 -384 -3
-448 5 -27 3 -78 13 -114 21 -35 8 -69 13 -73 10 -5 -3 -11 -1 -15 5 -3 5 -15
10 -26 10 -10 0 -19 3 -19 8 0 4 -10 8 -23 9 -12 0 -35 7 -52 14 -16 6 -35 13
-41 14 -6 2 -29 11 -50 21 -22 11 -41 19 -44 19 -19 0 -242 121 -280 152 -8 6
-43 33 -77 58 -94 69 -198 170 -281 270 -105 128 -102 124 -114 151 -6 13 -15
24 -20 24 -4 0 -8 6 -8 14 0 7 -7 19 -15 26 -8 7 -15 20 -15 30 0 10 -7 20
-15 24 -8 3 -14 9 -14 13 1 4 -16 46 -38 93 -43 90 -102 255 -110 305 -3 16
-9 38 -14 48 -5 9 -8 17 -5 17 2 0 0 17 -5 38 -18 79 -28 191 -28 322 0 154 5
204 33 345 16 78 65 242 92 303 71 164 178 341 274 454 64 75 188 198 200 198
5 0 10 4 10 8 0 9 124 104 186 142 22 14 49 30 60 37 31 19 193 104 199 103 3
0 20 6 38 13 69 29 171 61 242 77 114 26 134 29 201 34 31 3 58 6 60 8 4 5
280 0 331 -5z"/>
</g>
</svg>
